<svg id="step-3" xmlns="http://www.w3.org/2000/svg" width="50" height="50" viewBox="0 0 100 100">
  <defs>
    <style>
      .cls-1 {
        fill: #ccc;
      }

      .cls-2 {
        fill: #fff;
        fill-rule: evenodd;
      }
    </style>
  </defs>
  <circle class="cls-1" cx="50" cy="50" r="50"/>
  <path id="_3" data-name="3" class="cls-2" d="M1097.83,2318.5a7.656,7.656,0,0,0,2.42-.57,4.673,4.673,0,0,0,1.85-1.38,3.677,3.677,0,0,0,.73-2.4,4.16,4.16,0,0,0-1.5-3.45,5.367,5.367,0,0,0-3.45-1.2,4.836,4.836,0,0,0-4.08,1.78,6.907,6.907,0,0,0-1.32,4.47h-6.75a15,15,0,0,1,.97-4.92,11.337,11.337,0,0,1,2.45-3.83,10.877,10.877,0,0,1,3.78-2.47,13.034,13.034,0,0,1,4.9-.88,14.551,14.551,0,0,1,4.2.63,11.78,11.78,0,0,1,3.77,1.87,10.2,10.2,0,0,1,2.73,3.05,8.1,8.1,0,0,1,1.05,4.15,8.255,8.255,0,0,1-1.23,4.5,6.1,6.1,0,0,1-3.67,2.65v0.1a7.679,7.679,0,0,1,4.55,2.8,8.224,8.224,0,0,1,1.65,5.15,10.739,10.739,0,0,1-1.08,4.9,10.481,10.481,0,0,1-2.87,3.6,12.6,12.6,0,0,1-4.15,2.2,16.925,16.925,0,0,1-10.28-.1,10.8,10.8,0,0,1-6.75-6.45,14.178,14.178,0,0,1-.87-5.4h6.75a9.83,9.83,0,0,0,.45,2.68,6.671,6.671,0,0,0,1.15,2.2,5.437,5.437,0,0,0,1.87,1.47,6.019,6.019,0,0,0,2.68.55,5.869,5.869,0,0,0,4.05-1.47,5.145,5.145,0,0,0,1.65-4.03,5.067,5.067,0,0,0-.78-3.05,4.338,4.338,0,0,0-1.97-1.52,8.208,8.208,0,0,0-2.63-.55c-0.95-.05-1.85-0.08-2.72-0.08v-5A14.3,14.3,0,0,0,1097.83,2318.5Z" transform="translate(-1048 -2271)"/>
</svg>
