<svg id="step-2" xmlns="http://www.w3.org/2000/svg" width="50" height="50" viewBox="0 0 100 100">
  <defs>
    <style>
      .cls-1 {
        fill: #ccc;
      }

      .cls-2 {
        fill: #fff;
        fill-rule: evenodd;
      }
    </style>
  </defs>
  <circle class="cls-1" cx="50" cy="50" r="50"/>
  <path id="_2" data-name="2" class="cls-2" d="M1086.53,1823.23a12.807,12.807,0,0,1,2.4-4.5,10.792,10.792,0,0,1,4.02-3,13.616,13.616,0,0,1,5.58-1.08,13.905,13.905,0,0,1,4.57.75,11.871,11.871,0,0,1,3.83,2.15,10.329,10.329,0,0,1,2.62,3.45,10.589,10.589,0,0,1,.98,4.6,11,11,0,0,1-.85,4.55,12.168,12.168,0,0,1-2.25,3.38,18.894,18.894,0,0,1-3.18,2.67c-1.18.8-2.37,1.59-3.57,2.38s-2.37,1.62-3.5,2.52a16.035,16.035,0,0,0-3,3.15h16.55v6.1h-25.7a14.681,14.681,0,0,1,.87-5.3,14.2,14.2,0,0,1,2.38-4.02,20.5,20.5,0,0,1,3.52-3.28c1.35-1,2.78-2.01,4.28-3.05,0.77-.53,1.58-1.07,2.45-1.62a15.537,15.537,0,0,0,2.37-1.83,9.286,9.286,0,0,0,1.8-2.25,5.5,5.5,0,0,0,.73-2.85,5.006,5.006,0,0,0-5.25-5.4,4.569,4.569,0,0,0-2.63.73,5.345,5.345,0,0,0-1.72,1.9,9.023,9.023,0,0,0-.93,2.6,15.122,15.122,0,0,0-.27,2.82h-6.8A16.741,16.741,0,0,1,1086.53,1823.23Z" transform="translate(-1048 -1782)"/>
</svg>
