<svg xmlns="http://www.w3.org/2000/svg" width="31" height="31" viewBox="0 0 31 31"><defs><style>.a{fill:#ffffff;}</style></defs><path class="a" d="M0-27.5A15.5,15.5,0,0,0-15.5-12,15.5,15.5,0,0,0,0,3.5,15.5,15.5,0,0,0,15.5-12,15.5,15.5,0,0,0,0-27.5Zm0,29A13.5,13.5,0,0,1-13.5-12,13.5,13.5,0,0,1,0-25.5,13.5,13.5,0,0,1,13.5-12,13.5,13.5,0,0,1,0,1.5ZM5.925-16.331a.762.762,0,0,0,0-1.062l-.531-.531a.751.751,0,0,0-1.062,0L0-13.594l-4.331-4.331a.751.751,0,0,0-1.062,0l-.531.531a.751.751,0,0,0,0,1.062L-1.594-12-5.925-7.669a.751.751,0,0,0,0,1.062l.531.531a.751.751,0,0,0,1.062,0L0-10.406,4.331-6.075a.751.751,0,0,0,1.062,0l.531-.531a.751.751,0,0,0,0-1.062L1.594-12Z" transform="translate(15.5 27.5)"/></svg>