<svg viewBox="0 0 100 100" style="background-color:#ffffff00" version="1.1"
	xmlns="http://www.w3.org/2000/svg" xmlns:xlink="http://www.w3.org/1999/xlink" xml:space="preserve"
	x="0px" y="0px" width="100px" height="100px"
>
	<g>
		<path d="M 50 -0.0001 C 77.6143 -0.0001 100 22.3859 100 50.0001 C 100 77.6143 77.6143 100 50 100 C 22.3857 100 0 77.6143 0 50.0001 C 0 22.3859 22.3857 -0.0001 50 -0.0001 Z" fill="#1685b7"/>
		<path d="M 73.0233 67.0668 L 63.6792 57.7228 C 63.2576 57.301 62.6859 57.0668 62.0861 57.0668 L 60.5583 57.0668 C 63.145 53.7584 64.6821 49.5972 64.6821 45.0706 C 64.6821 34.3018 55.9568 25.5764 45.1882 25.5764 C 34.4196 25.5764 25.6942 34.3018 25.6942 45.0706 C 25.6942 55.8391 34.4196 64.5645 45.1882 64.5645 C 49.7148 64.5645 53.8762 63.0274 57.1846 60.4407 L 57.1846 61.9683 C 57.1846 62.5682 57.4187 63.1398 57.8403 63.5617 L 67.1844 72.9056 C 68.0654 73.7866 69.49 73.7866 70.3616 72.9056 L 73.0139 70.2532 C 73.8949 69.3723 73.8949 67.9478 73.0233 67.0668 ZM 45.1882 57.0668 C 38.562 57.0668 33.1919 51.7059 33.1919 45.0706 C 33.1919 38.4444 38.5526 33.0741 45.1882 33.0741 C 51.8142 33.0741 57.1846 38.4351 57.1846 45.0706 C 57.1846 51.6965 51.8235 57.0668 45.1882 57.0668 Z" fill="#ffffff"/>
	</g>
</svg>