<?xml version="1.0" encoding="UTF-8" standalone="no"?><!DOCTYPE svg PUBLIC "-//W3C//DTD SVG 1.1//EN" "http://www.w3.org/Graphics/SVG/1.1/DTD/svg11.dtd"><svg width="100%" height="100%" viewBox="0 0 33 33" version="1.1" xmlns="http://www.w3.org/2000/svg" xmlns:xlink="http://www.w3.org/1999/xlink" xml:space="preserve" xmlns:serif="http://www.serif.com/" style="fill-rule:evenodd;clip-rule:evenodd;stroke-linejoin:round;stroke-miterlimit:1.41421;"><path id="x" d="M27.592,32.359c-0.389,0.389 -0.861,0.583 -1.417,0.583c-0.555,0 -1.027,-0.194 -1.416,-0.583l-8.084,-8.084l-8.083,8.084c-0.389,0.389 -0.861,0.583 -1.417,0.583c-0.555,0 -1.028,-0.194 -1.417,-0.583l-4.5,-4.5c-0.388,-0.389 -0.583,-0.861 -0.583,-1.417c0,-0.555 0.195,-1.028 0.583,-1.417l8.084,-8.083l-8.084,-8.084c-0.388,-0.389 -0.583,-0.861 -0.583,-1.416c0,-0.556 0.195,-1.028 0.583,-1.417l4.5,-4.5c0.389,-0.389 0.862,-0.583 1.417,-0.583c0.556,0 1.028,0.194 1.417,0.583l8.083,8.083l8.084,-8.083c0.389,-0.389 0.861,-0.583 1.416,-0.583c0.556,0 1.028,0.194 1.417,0.583l4.5,4.5c0.389,0.389 0.583,0.861 0.583,1.417c0,0.555 -0.194,1.027 -0.583,1.416l-8.083,8.084l8.083,8.083c0.389,0.389 0.583,0.862 0.583,1.417c0,0.556 -0.194,1.028 -0.583,1.417l-4.5,4.5Z" style="fill:#d83638;fill-rule:nonzero;"/></svg>