<svg id="Layer_1" data-name="Layer 1" xmlns="http://www.w3.org/2000/svg" viewBox="0 0 110 110"><defs><style>.cls-1{fill:#f8f8f8;}.cls-2{fill:#7f3e13;}.cls-3{fill:#b85a1b;}.cls-4{fill:#63300f;}.cls-5{fill:#4f2800;}.cls-6{fill:#e1762f;}.cls-7{fill:#e5895b;}.cls-8{fill:#fad395;}.cls-9{fill:#fff;}.cls-10{fill:#ad6151;}.cls-11{fill:#1b1d23;}.cls-12{fill:#7eaaba;}.cls-13{fill:#d3e8ef;}.cls-14{fill:#036aab;}.cls-15{fill:#0399ed;}</style></defs><title>sullie-default</title><g id="Layer_2" data-name="Layer 2"><rect class="cls-1" width="110" height="110"/></g><g id="Mascot"><path class="cls-2" d="M33.15,18.2c5.7,0,10.28,4.89,10.28,10.89S38.85,40,33.15,40,22.87,35.09,22.87,29.09,27.45,18.2,33.15,18.2Z"/><path class="cls-3" d="M33.15,21.2c-4.22,0-7.27,3.77-7.27,7.89S28.93,37,33.15,37s7.27-3.76,7.27-7.88S37.37,21.2,33.15,21.2Z"/><path class="cls-4" d="M33.15,24.2c-2.59,0-4.27,2.45-4.27,4.89S30.61,34,33.15,34s4.27-2.44,4.27-4.88S35.69,24.2,33.15,24.2Z"/><path class="cls-2" d="M76.85,18.2c5.7,0,10.28,4.89,10.28,10.89S82.55,40,76.85,40,66.57,35.09,66.57,29.09,71.15,18.2,76.85,18.2Z"/><path class="cls-3" d="M76.85,21.2c-4.22,0-7.27,3.77-7.27,7.89s3,7.88,7.27,7.88,7.27-3.76,7.27-7.88S81.07,21.2,76.85,21.2Z"/><path class="cls-5" d="M76.85,24.2c-2.59,0-4.27,2.45-4.27,4.89S74.31,34,76.85,34s4.27-2.44,4.27-4.88S79.39,24.2,76.85,24.2Z"/><path class="cls-2" d="M50.85,23.29a3.26,3.26,0,1,1-3.25,3.25A3.28,3.28,0,0,1,50.85,23.29Zm8.3,0a3.26,3.26,0,1,1-3.26,3.25A3.27,3.27,0,0,1,59.15,23.29Z"/><path class="cls-2" d="M93,36.87V57.12l.2.05A7.5,7.5,0,0,1,98,64.24V78.79L55,93,12,79.15V64.24a7.5,7.5,0,0,1,4.83-7.07l.2-.05V36.82c0-14,75.91-14,75.91,0Z"/><path class="cls-3" d="M20.48,37.63V59.46l-1.78.71a5,5,0,0,0-3.2,4.73V80.27L55,93,94.55,80V64.9a5,5,0,0,0-3.2-4.73l-1.78-.71V37.63c0-10.37-69-10.37-69,0Z"/><path class="cls-6" d="M20.48,37.63V59.46l-1.78.71a5,5,0,0,0-3.2,4.73V80.27L55,93V84.64c-13.69,0-27.37-8.9-23.76-26.66H55V29.9c-17.25,0-34.55,2.6-34.55,7.79Z"/><path class="cls-7" d="M29.39,53.35H80.77C88,91.92,21.55,91.61,29.39,53.35Z"/><path class="cls-7" d="M31.93,56.36c-.71,6,.56,11.7,5,16.17,4.69,4.68,11.76,6.72,18.27,6.67,6.26,0,12.92-2,17.55-6.46s6-10.28,5.44-16.38Z"/><path class="cls-8" d="M63.62,74.37c3.46,4.47,13.54,2.64,10.53-6.82Z"/><path class="cls-5" d="M60.47,73.4c3.87,5,16.48,2,13.58-8.75Z"/><path class="cls-9" d="M63.83,70.8a1.52,1.52,0,0,1,1.78,1.12,1.54,1.54,0,0,1-1,1.89,1.56,1.56,0,0,1-.81-3Zm8.24-5.69a1.48,1.48,0,0,1,1.78,1.12,1.53,1.53,0,0,1-1,1.88A1.49,1.49,0,0,1,71.1,67,1.51,1.51,0,0,1,72.07,65.11Z"/><path class="cls-10" d="M68.91,75.28a7.81,7.81,0,0,0,5.55-6.61C72.22,68.36,68.35,71.62,68.91,75.28Z"/><path class="cls-8" d="M34.68,53.35H75.43C81.17,80.88,28.47,80.62,34.68,53.35Z"/><path class="cls-5" d="M55,69A9.53,9.53,0,0,1,57,64.45c4.88-.77,9.1-4.48,7.78-11.15a29.23,29.23,0,0,0-9.66-1.67l-2,6.3,2,11.14Z"/><path class="cls-4" d="M55,69a9.64,9.64,0,0,0-1.94-4.57C48.21,63.68,44,60,45.31,53.3A29.23,29.23,0,0,1,55,51.63V69Z"/><path class="cls-10" d="M47.8,54.27a27.88,27.88,0,0,1,14.45,0C64.28,59.31,45.61,59.26,47.8,54.27Z"/><path class="cls-9" d="M47.24,40.28a5.45,5.45,0,1,1-5.44,5.44A5.45,5.45,0,0,1,47.24,40.28Z"/><path class="cls-11" d="M47.65,42.16a4.07,4.07,0,1,1-4.07,4.07A4.08,4.08,0,0,1,47.65,42.16Z"/><path class="cls-9" d="M62.91,40.28a5.45,5.45,0,1,0,5.44,5.44A5.45,5.45,0,0,0,62.91,40.28Z"/><path class="cls-11" d="M62.5,42.16a4.07,4.07,0,1,0,4.07,4.07A4.09,4.09,0,0,0,62.5,42.16Z"/><path class="cls-4" d="M51.21,38.5a15.23,15.23,0,0,0-11.29,2C38.75,33.82,50,31.84,51.21,38.5Z"/><path class="cls-5" d="M57.82,35.14a15.21,15.21,0,0,1,11.3,2C70.29,30.46,59,28.48,57.82,35.14Z"/><path class="cls-12" d="M98,78.84v41.87a5.1,5.1,0,0,1-5.09,5.09H17.07A5.1,5.1,0,0,1,12,120.71V79.2L55,89.48Z"/><path class="cls-13" d="M94.55,83.22,55,93,15.45,83.52V119.8A2.52,2.52,0,0,0,18,122.34H92a2.52,2.52,0,0,0,2.54-2.54Z"/><path class="cls-9" d="M55,93,15.5,83.52V119.8A2.52,2.52,0,0,0,18,122.34H55Z"/><path class="cls-14" d="M55,103.26H88.25v4.48H55Zm0,9.21H88.25V117H55Z"/><path class="cls-15" d="M21.81,103.26H55v4.48H21.81v-4.48ZM55,117v-4.48H21.81V117Z"/><polygon class="cls-9" points="35.29 100.36 39.46 100.36 39.46 120.66 35.29 120.66 35.29 100.36"/><path class="cls-12" d="M23.59,82c10.48,2.49,21,5,31.38,7.53L43.78,100.06C36.51,95.78,29.33,91.05,23.59,82Z"/><path class="cls-9" d="M32.49,87.59a58.21,58.21,0,0,0,10.83,8.19l4.74-4.47C42.87,90.09,37.68,88.81,32.49,87.59Z"/><path class="cls-12" d="M86.41,82c-10.48,2.49-21,5-31.38,7.53l11.19,10.58C73.49,95.78,80.67,91.05,86.41,82Z"/><path class="cls-9" d="M77.51,87.59a58.21,58.21,0,0,1-10.83,8.19l-4.74-4.47C67.13,90.09,72.32,88.81,77.51,87.59Z"/></g></svg>